<?xml version="1.0" encoding="utf-8"?>
<!-- Generator: Adobe Illustrator 18.1.1, SVG Export Plug-In . SVG Version: 6.00 Build 0)  -->
<svg version="1.1" id="Layer_1" xmlns="http://www.w3.org/2000/svg" xmlns:xlink="http://www.w3.org/1999/xlink" x="0px" y="0px"
	 viewBox="0 0 1000 234.8" enable-background="new 0 0 1000 234.8" xml:space="preserve">
<g>
	<polygon fill-rule="evenodd" clip-rule="evenodd" fill="#FFFFFF" points="398.8,106.2 400.5,103 401.5,98.4 402,93.4 401.5,89.1 
		400.3,85.6 399.8,84.1 398.3,82.6 396.8,81.4 395.3,80.4 392.2,78.3 388.5,77.3 384,76.8 382.7,76.6 378.9,76.3 363.4,76.3 
		363.4,114.8 377.2,114.8 382.7,114.3 382.9,114.3 388,113.3 390.2,112.8 392.2,111.8 394.3,110.7 395.8,109.2 	"/>
	<polygon fill-rule="evenodd" clip-rule="evenodd" fill="#FFFFFF" points="109.7,76.8 92.6,126.1 109.9,126.1 127.5,126.1 
		109.9,77.6 	"/>
	<polygon fill-rule="evenodd" clip-rule="evenodd" fill="#FFFFFF" points="518.3,102 517.3,97.9 515.8,94.4 514.3,91.2 513.1,88.1 
		511.1,85.1 508.5,82.6 506,80.4 503,78.8 500.3,77.3 497.2,75.8 493.7,75.3 490.5,74.8 486.9,74.3 486.7,74.3 482.9,74.8 
		479.7,75.3 476.1,75.8 473.4,77.3 470.4,78.8 468.1,80.4 465.6,82.6 463.1,85.1 461.1,88.1 459.1,91.2 457.5,94.4 456.8,97.9 
		455.8,102 454.8,106.2 454.3,110.7 454.3,115.3 454.3,120 454.8,124.6 455.8,128.8 456.8,132.9 457.5,136.4 459.1,139.6 
		461.1,142.7 463.1,145.7 465.6,148.2 468.1,150.2 470.9,151.9 473.4,153.5 476.6,154.5 479.7,155.5 482.9,156 486.7,156 486.9,156 
		490.5,156 493.7,155.5 497.2,154.5 500.3,153.5 503,151.9 506,150.2 508.5,148.2 510.6,145.7 513.1,142.7 514.3,139.6 515.8,136.4 
		517.3,132.9 518.3,128.8 518.8,124.6 519.3,120 519.3,115.3 519.3,110.7 518.8,106.2 	"/>
	<path fill-rule="evenodd" clip-rule="evenodd" fill="#FFFFFF" d="M0,0v234.8h1000V0H0z M141.6,165.8l-9.8-27.9h-21.9H88.1
		l-9.8,27.9H64.9L101.4,65h8.5h9l36.9,100.7H141.6z M243.3,139.6l-0.5,3l-0.8,3l-1.5,3l-1.5,2.3l-1.5,3l-2,2l-2.5,2.5l-2.8,2l-3,1.3
		l-3.5,2l-3.5,1l-3.3,1l-4.5,1l-4.5,0.5h-4.8h-5.5l-4.8-0.5l-5-0.5l-4.3-1l-4.5-1l-4.5-1.5l-4.3-1.3l-4.5-2v-16.8h1l4,3l4.3,2.5
		l4.5,2.3l5,2l4.8,1.5l5,1l4.3,0.5l4.5,0.5l5.8-0.5l5.5-1l4.3-1.5l4-2l3-2.3l2-3l1.5-3l0.5-3.8l-0.5-3l-0.5-3l-1-2l-1.5-2l-2-1.5
		l-2-1.3l-3-1l-2.8-1l-5.5-1.5l-5.8-1l-6-1l-6.3-1l-6.5-2l-5.3-1.8l-4.5-2.5l-3.3-3.5l-3-3.5l-2-4.3l-1.5-4.5v-5.3v-3l0.5-3l1-3
		l1-2.8l1.5-2.5l2-2l1.8-2.5l2.5-2l3-1.8l3-1.5l2.8-1.5l3.5-1.5l3.5-0.5l3.5-1h3.8l4-0.5l5.3,0.5h5l4.8,1l4.5,0.5l4.5,1.5l3.8,1
		l3.5,1.5l4,1.3v15.8h-1l-3.5-2.5l-3.5-1.8l-3.8-2l-4.5-2l-4.5-1.5l-4.8-1l-5-0.5h-4.8h-5l-4.8,1l-4,1.5l-3.5,2l-2.8,2.5l-2,2.3
		l-1,3l-0.5,3.5v2.8l0.5,3l1.5,2l1,2l1.8,2l3,1.5l3,1l4,0.8l4.8,1.5l7.3,1l7.5,1.5l5.8,1.5l5.5,1.5l4.3,2l4,2.3l3,3l2.5,3.5l2,3.8
		l0.8,4.5l0.5,5V139.6z M336.2,76.8h-35.9v88.9h-13.1V76.8h-35.9V65h84.9V76.8z M415.9,165.8l-33.2-39.4l-0.8-0.8h-18.6v40.2H350V65
		h28.1h4.3h0.3l3.8,0.5h3.3l3.5,0.5l3,1l3,1l2.3,1l2.5,1.3l3,2l2,2l2,2.5l1.8,2.5l1,2.5l1,3.3l1,3.5v4l-0.5,4.8l-1,5l-1.5,4.3
		l-2.3,4l-3,3.5L404,117l-4.3,2.5l-4.5,2l37.9,44.2H415.9z M533.2,121.6l-0.5,5.5l-1,5.3l-1.5,5.5l-2,4.3l-2,4.5l-2.3,3.8l-3,3.5
		l-3.5,3l-3.3,3l-4,2.3l-4,2l-4.3,1.5l-4.5,1l-5.5,0.5l-4.8,0.5h-0.2l-5.3-0.5l-4.8-0.5l-4.3-1l-4.8-1.5l-4-2l-4-2.3l-3.3-3l-3.5-3
		l-2.5-3.5l-2.5-3.8l-2.3-4.5l-2-4.3l-1-5.5l-1.5-5.3l-0.5-5.5v-6.3v-6l0.5-5.3l1-5.5l1.5-5l2-4.8l1.8-4.5l3-3.8l3-3.5l3-3.5
		l3.3-2.5l4-2.3l4.5-2l4.3-1.5l4.3-1l4.8-1h5.3h0.2h4.8l5.5,1l4.5,1l4.3,1.5l4.5,2l3.5,2.3l3.3,2.5l3.5,3.5l3,3.5l2.3,3.8l2,4.5
		l2,4.5l1.5,4.8l1,5.5l0.5,5.8l0.5,6L533.2,121.6z M631.4,165.8h-16.6l-47.7-89.9v89.9h-12.3V65h20.6l43.2,82.1V65h12.8V165.8z
		 M669.8,165.8H657V65h12.8V165.8z M785.3,165.8H772V78.8l-28.1,59h-7.8l-27.6-59v86.9h-12.8V65H714l27.1,56L767,65h18.3V165.8z
		 M921,157.5l-20.3,14.3l-23.4-23.1l-22.6,23.6l-20.3-14.8l14.8-29.6l-28.9-14.1l7.3-23.6l32.9-1l4.5-26.6h24.9l5.5,26.6l31.9,0.5
		l7.8,23.6l-29.4,15.1L921,157.5z"/>
</g>
</svg>
